<?xml version="1.0" standalone="no"?><!DOCTYPE svg PUBLIC "-//W3C//DTD SVG 1.1//EN" "http://www.w3.org/Graphics/SVG/1.1/DTD/svg11.dtd"><svg t="1652597693779" class="icon" viewBox="0 0 1024 1024" version="1.1" xmlns="http://www.w3.org/2000/svg" p-id="5898" width="232" height="232" xmlns:xlink="http://www.w3.org/1999/xlink"><defs><style type="text/css"></style></defs><path d="M567.539 728.979c-12.55 28.603-4.181 46.941 13.595 50.54 17.782 3.6 59.616-41.345 32.423-88.332-0.001 0-33.467 9.191-46.017 37.791zM1002.305 452.854c-21.611-40.162-38.352-6.123-41.134-2.715 0 0-6.982 15.662 12.544 8.853 19.538-6.805 12.549 28.603-8.368 29.285 0 0-2.778-25.878-45.316-60.609-42.545-34.732-106.693-53.81-185.487-55.17-78.812-1.363-161.785-0.004-161.785-0.004s-27.194 49.030 0 77.63c27.198 28.598 60.669 87.867 60.669 147.105 0 59.235-4.182 163.42 14.644 173.641 18.838 10.207 46.031 32.678 83.684-85.813l64.846 4.083c0 0 0 81.73 41.844 77.631 41.841-4.083 12.546-53.109 23.008-81.715 10.462-28.594 14.654 53.116 16.735 65.376 2.098 12.251 35.561 19.301 48.116-8.732 12.55-28.043-8.339-74.486 37.652-144.473 13.946-21.215 9.758-78.311 5.569-90.569 0 0.001 54.394-13.629 32.779-53.807zM610.418 623.773c25.104-122.577-64.852-187.949-64.852-187.949-12.554-155.261-79.497-175.683-79.497-175.683 4.192-27.922 2.789-64.694-22.323-70.137-25.1-5.456-62.748 51.070-62.748 51.070l-170.833-2.72c-9.065-32.693-26.506-30.642-26.506-30.642-43.923-6.814-27.198 69.454-27.198 69.454l0.637 0.062c0.382 7.514 1.621 15.872 4.158 24.992-42.431 57.789-30.116 169.325-52.894 192.855-24.401 25.205-99.031 80.627-91.355 128.701 8.59 53.797 46.769 84.036 69.422 97.542 32.833 29.578 85.858 57.958 171.498 72.301 83.518 13.995 141.834 4.274 182.737-14.465 69.045-20.787 151.37-65.628 169.755-155.382zM412.045 634.988c-4.153-1.461-8.69-3.565-13.375-6.592-4.573-15.732-7.743-60.196 17.2-52.687 51.777 15.603 10.651 48.999-3.825 59.279zM404.007 341.184c9.062 0 15.105 12.086 19.135 28.399-2.737 16.387-9.062 32.183-23.317 31.519-6.159-0.289-10.988-6.342-14.78-15.703 0.358-0.416 0.425-0.855 0.132-1.322-5.575-8.859-9.065-42.893 18.831-42.893zM263.851 337.090c8.844 3.533 10.503 21.329 10.324 35.766-10.414 30.451-24.677 51.316-39.196 7.78-1.074-28.565 15.033-49.078 28.871-43.547zM201.697 652.308c-11.643-21.351-24.101-72.041 15.449-68.716 40.445 3.412 22.303 44.949 22.303 44.949l0.338 0.003c-9.78 14.15-22.667 25.716-38.089 23.762z" p-id="5899"></path></svg>